<mxfile host="app.diagrams.net" agent="Mozilla/5.0 (Macintosh; Intel Mac OS X 10_15_7) AppleWebKit/537.36 (KHTML, like Gecko) Chrome/131.0.0.0 Safari/537.36" version="25.0.3">
  <diagram name="Page-1" id="6_QjY_REdsZe-zkdRxCY">
    <mxGraphModel dx="6210" dy="3925" grid="1" gridSize="10" guides="1" tooltips="1" connect="1" arrows="1" fold="1" page="1" pageScale="1" pageWidth="4000" pageHeight="20000" math="0" shadow="0">
      <root>
        <mxCell id="0" />
        <mxCell id="1" parent="0" />
        <mxCell id="OIM9myzrcSlwBP61n2ra-2" value="" style="rounded=0;whiteSpace=wrap;html=1;movable=1;resizable=1;rotatable=1;deletable=1;editable=1;locked=0;connectable=1;sketch=1;curveFitting=1;jiggle=2;" vertex="1" parent="1">
          <mxGeometry x="290" y="210" width="3443" height="4576" as="geometry" />
        </mxCell>
        <mxCell id="OIM9myzrcSlwBP61n2ra-3" style="edgeStyle=orthogonalEdgeStyle;rounded=0;orthogonalLoop=1;jettySize=auto;html=1;exitX=0.5;exitY=1;exitDx=0;exitDy=0;entryX=0.5;entryY=0;entryDx=0;entryDy=0;strokeWidth=5;sketch=1;curveFitting=1;jiggle=2;" edge="1" parent="1" source="OIM9myzrcSlwBP61n2ra-5" target="OIM9myzrcSlwBP61n2ra-6">
          <mxGeometry relative="1" as="geometry" />
        </mxCell>
        <mxCell id="OIM9myzrcSlwBP61n2ra-4" style="edgeStyle=orthogonalEdgeStyle;rounded=0;orthogonalLoop=1;jettySize=auto;html=1;exitX=0.5;exitY=1;exitDx=0;exitDy=0;entryX=0.5;entryY=0;entryDx=0;entryDy=0;strokeWidth=5;sketch=1;curveFitting=1;jiggle=2;" edge="1" parent="1" source="OIM9myzrcSlwBP61n2ra-5" target="OIM9myzrcSlwBP61n2ra-30">
          <mxGeometry relative="1" as="geometry" />
        </mxCell>
        <mxCell id="OIM9myzrcSlwBP61n2ra-5" value="&lt;font style=&quot;font-size: 45px;&quot;&gt;&lt;b&gt;0. Check if backend&amp;nbsp;&lt;/b&gt;&lt;/font&gt;&lt;div&gt;&lt;font style=&quot;font-size: 45px;&quot;&gt;&lt;b&gt;or frontend&amp;nbsp;&lt;/b&gt;&lt;/font&gt;&lt;b style=&quot;background-color: initial; font-size: 45px;&quot;&gt;code&lt;/b&gt;&lt;b style=&quot;font-size: 45px; background-color: initial;&quot;&gt;&amp;nbsp;changed&lt;/b&gt;&lt;/div&gt;" style="shape=process;whiteSpace=wrap;html=1;backgroundOutline=1;sketch=1;curveFitting=1;jiggle=2;" vertex="1" parent="1">
          <mxGeometry x="1555" y="2223" width="1474" height="191.75" as="geometry" />
        </mxCell>
        <mxCell id="OIM9myzrcSlwBP61n2ra-6" value="&lt;font style=&quot;font-size: 35px;&quot;&gt;1.&amp;nbsp;Lint Code with ESLint&amp;nbsp;&lt;/font&gt;&lt;font style=&quot;font-size: 35px;&quot;&gt;✅&lt;/font&gt;&lt;div&gt;&lt;span style=&quot;font-size: 35px;&quot;&gt;&lt;br&gt;&lt;/span&gt;&lt;div&gt;&lt;font color=&quot;#665a0a&quot; style=&quot;font-size: 30px;&quot;&gt;pnpm nx run-many --target=lint --all --verbose || true&lt;/font&gt;&lt;/div&gt;&lt;/div&gt;" style="shape=process;whiteSpace=wrap;html=1;backgroundOutline=1;sketch=1;curveFitting=1;jiggle=2;" vertex="1" parent="1">
          <mxGeometry x="1113.26" y="2784" width="902.22" height="231" as="geometry" />
        </mxCell>
        <mxCell id="OIM9myzrcSlwBP61n2ra-7" style="edgeStyle=orthogonalEdgeStyle;rounded=0;orthogonalLoop=1;jettySize=auto;html=1;exitX=0.5;exitY=1;exitDx=0;exitDy=0;entryX=0.5;entryY=0;entryDx=0;entryDy=0;strokeWidth=5;sketch=1;curveFitting=1;jiggle=2;" edge="1" parent="1" source="OIM9myzrcSlwBP61n2ra-8" target="OIM9myzrcSlwBP61n2ra-11">
          <mxGeometry relative="1" as="geometry" />
        </mxCell>
        <mxCell id="OIM9myzrcSlwBP61n2ra-8" value="&lt;font style=&quot;font-size: 35px;&quot;&gt;2.&amp;nbsp;Run Frontend Unit and Integration Tests&amp;nbsp;&lt;/font&gt;&lt;font style=&quot;font-size: 35px;&quot;&gt;✅&lt;/font&gt;&lt;div&gt;&lt;span style=&quot;font-size: 35px;&quot;&gt;&lt;br&gt;&lt;/span&gt;&lt;div&gt;&lt;font color=&quot;#665a0a&quot; style=&quot;font-size: 30px;&quot;&gt;pnpm nx run-many --target=test --all --exclude=appointment-app --verbose || true&lt;/font&gt;&lt;/div&gt;&lt;/div&gt;" style="shape=process;whiteSpace=wrap;html=1;backgroundOutline=1;sketch=1;curveFitting=1;jiggle=2;" vertex="1" parent="1">
          <mxGeometry x="1113.26" y="3081" width="902.22" height="319" as="geometry" />
        </mxCell>
        <mxCell id="OIM9myzrcSlwBP61n2ra-9" value="&lt;span style=&quot;font-size: 45px;&quot;&gt;&lt;b&gt;Development Workflow&lt;/b&gt;&lt;/span&gt;" style="rounded=0;whiteSpace=wrap;html=1;sketch=1;curveFitting=1;jiggle=2;fillColor=#fff2cc;strokeColor=#d6b656;" vertex="1" parent="1">
          <mxGeometry x="455" y="331" width="3080" height="176" as="geometry" />
        </mxCell>
        <mxCell id="OIM9myzrcSlwBP61n2ra-10" style="edgeStyle=orthogonalEdgeStyle;rounded=0;orthogonalLoop=1;jettySize=auto;html=1;exitX=0.5;exitY=1;exitDx=0;exitDy=0;entryX=0.5;entryY=0;entryDx=0;entryDy=0;strokeWidth=5;" edge="1" parent="1" source="OIM9myzrcSlwBP61n2ra-11" target="OIM9myzrcSlwBP61n2ra-23">
          <mxGeometry relative="1" as="geometry">
            <mxPoint x="2303" y="4159" as="targetPoint" />
            <Array as="points">
              <mxPoint x="1566" y="4093" />
              <mxPoint x="2292" y="4093" />
            </Array>
          </mxGeometry>
        </mxCell>
        <mxCell id="OIM9myzrcSlwBP61n2ra-11" value="&lt;font style=&quot;font-size: 35px;&quot;&gt;&lt;font style=&quot;&quot;&gt;3.&amp;nbsp;Build Frontend&amp;nbsp;&lt;/font&gt;✅&lt;/font&gt;&lt;div&gt;&lt;font color=&quot;#665a0a&quot; style=&quot;font-size: 30px;&quot;&gt;&lt;br&gt;&lt;/font&gt;&lt;/div&gt;&lt;div&gt;&lt;font color=&quot;#665a0a&quot; style=&quot;font-size: 30px;&quot;&gt;pnpm build&lt;/font&gt;&lt;/div&gt;" style="shape=process;whiteSpace=wrap;html=1;backgroundOutline=1;sketch=1;curveFitting=1;jiggle=2;" vertex="1" parent="1">
          <mxGeometry x="1113.67" y="3708" width="903.72" height="209" as="geometry" />
        </mxCell>
        <mxCell id="OIM9myzrcSlwBP61n2ra-12" style="edgeStyle=orthogonalEdgeStyle;rounded=0;orthogonalLoop=1;jettySize=auto;html=1;exitX=1;exitY=0.5;exitDx=0;exitDy=0;strokeWidth=5;sketch=1;curveFitting=1;jiggle=2;" edge="1" parent="1" source="OIM9myzrcSlwBP61n2ra-13" target="OIM9myzrcSlwBP61n2ra-15">
          <mxGeometry relative="1" as="geometry" />
        </mxCell>
        <mxCell id="OIM9myzrcSlwBP61n2ra-13" value="&lt;b style=&quot;line-height: 240%;&quot;&gt;&lt;font style=&quot;line-height: 120%; font-size: 45px;&quot;&gt;1. Create and checkout&amp;nbsp;&lt;/font&gt;&lt;/b&gt;&lt;div&gt;&lt;b style=&quot;line-height: 240%;&quot;&gt;&lt;font style=&quot;line-height: 120%; font-size: 45px;&quot;&gt;new feature branch&lt;/font&gt;&lt;/b&gt;&lt;div style=&quot;line-height: 240%;&quot;&gt;&lt;div&gt;&lt;font&gt;&lt;br&gt;&lt;div style=&quot;line-height: 120%;&quot;&gt;&lt;span style=&quot;background-color: initial; font-size: 30px; line-height: 120%;&quot;&gt;&lt;font color=&quot;#665a0a&quot;&gt;➜&amp;nbsp;&amp;nbsp;&lt;/font&gt;&lt;font color=&quot;#6600cc&quot;&gt;eDB&lt;/font&gt;&lt;font color=&quot;#665a0a&quot;&gt;&amp;nbsp;&lt;/font&gt;&lt;font color=&quot;#b266ff&quot;&gt;git&lt;/font&gt;&lt;font color=&quot;#665a0a&quot;&gt;:(&lt;/font&gt;&lt;font color=&quot;#ff9387&quot;&gt;dev&lt;/font&gt;&lt;font color=&quot;#665a0a&quot;&gt;)&amp;nbsp;&lt;/font&gt;&lt;/span&gt;&lt;span style=&quot;background-color: initial; font-size: 30px; line-height: 120%;&quot;&gt;&lt;font color=&quot;#665a0a&quot;&gt;git checkout -b feature/your-branch-name&amp;nbsp;&lt;/font&gt;&lt;/span&gt;&lt;/div&gt;&lt;/font&gt;&lt;/div&gt;&lt;/div&gt;&lt;/div&gt;" style="shape=process;whiteSpace=wrap;html=1;backgroundOutline=1;sketch=1;curveFitting=1;jiggle=2;" vertex="1" parent="1">
          <mxGeometry x="1493.53" y="826" width="1049.75" height="385" as="geometry" />
        </mxCell>
        <mxCell id="OIM9myzrcSlwBP61n2ra-14" style="edgeStyle=orthogonalEdgeStyle;rounded=0;orthogonalLoop=1;jettySize=auto;html=1;exitX=0.5;exitY=1;exitDx=0;exitDy=0;strokeWidth=5;" edge="1" parent="1" source="OIM9myzrcSlwBP61n2ra-15" target="OIM9myzrcSlwBP61n2ra-17">
          <mxGeometry relative="1" as="geometry" />
        </mxCell>
        <mxCell id="OIM9myzrcSlwBP61n2ra-15" value="&lt;font style=&quot;font-size: 45px;&quot;&gt;&lt;div style=&quot;&quot;&gt;&lt;b&gt;2. Make your changes&lt;/b&gt;&lt;/div&gt;&lt;/font&gt;" style="shape=process;whiteSpace=wrap;html=1;backgroundOutline=1;sketch=1;curveFitting=1;jiggle=2;" vertex="1" parent="1">
          <mxGeometry x="2688" y="840" width="836" height="371" as="geometry" />
        </mxCell>
        <mxCell id="OIM9myzrcSlwBP61n2ra-16" style="edgeStyle=orthogonalEdgeStyle;rounded=0;orthogonalLoop=1;jettySize=auto;html=1;exitX=0;exitY=0.5;exitDx=0;exitDy=0;entryX=1;entryY=0.5;entryDx=0;entryDy=0;strokeWidth=5;" edge="1" parent="1" source="OIM9myzrcSlwBP61n2ra-17" target="OIM9myzrcSlwBP61n2ra-19">
          <mxGeometry relative="1" as="geometry" />
        </mxCell>
        <mxCell id="OIM9myzrcSlwBP61n2ra-17" value="&lt;font style=&quot;&quot;&gt;&lt;div style=&quot;&quot;&gt;&lt;span style=&quot;font-size: 45px;&quot;&gt;&lt;b&gt;3. Stage and commit&lt;/b&gt;&lt;/span&gt;&lt;/div&gt;&lt;div style=&quot;&quot;&gt;&lt;span style=&quot;font-size: 45px;&quot;&gt;&lt;b&gt;your changes&lt;/b&gt;&lt;/span&gt;&lt;/div&gt;&lt;div style=&quot;&quot;&gt;&lt;span style=&quot;font-size: 45px;&quot;&gt;&lt;b&gt;&lt;br&gt;&lt;/b&gt;&lt;/span&gt;&lt;/div&gt;&lt;div style=&quot;&quot;&gt;&lt;span style=&quot;background-color: initial; font-size: 30px;&quot;&gt;&lt;font color=&quot;#665a0a&quot;&gt;➜&amp;nbsp;&amp;nbsp;&lt;/font&gt;&lt;font color=&quot;#6600cc&quot;&gt;eDB&lt;/font&gt;&lt;font color=&quot;#665a0a&quot;&gt;&amp;nbsp;&lt;/font&gt;&lt;font color=&quot;#b266ff&quot;&gt;git&lt;/font&gt;&lt;font color=&quot;#665a0a&quot;&gt;:(&lt;/font&gt;&lt;font color=&quot;#ff9387&quot;&gt;dev&lt;/font&gt;&lt;font color=&quot;#665a0a&quot;&gt;)&amp;nbsp;&lt;/font&gt;&lt;/span&gt;&lt;span style=&quot;background-color: initial;&quot;&gt;&lt;font style=&quot;&quot; color=&quot;#665a0a&quot;&gt;&lt;span style=&quot;font-size: 30px;&quot;&gt;git add .&amp;nbsp;&lt;/span&gt;&lt;/font&gt;&lt;/span&gt;&lt;b style=&quot;&quot;&gt;&lt;font style=&quot;font-size: 30px;&quot;&gt;&lt;/font&gt;&lt;/b&gt;&lt;/div&gt;&lt;div style=&quot;&quot;&gt;&lt;div style=&quot;&quot;&gt;&lt;span style=&quot;background-color: initial; font-size: 30px;&quot;&gt;&lt;font color=&quot;#665a0a&quot;&gt;➜&amp;nbsp;&amp;nbsp;&lt;/font&gt;&lt;font color=&quot;#6600cc&quot;&gt;eDB&lt;/font&gt;&lt;font color=&quot;#665a0a&quot;&gt;&amp;nbsp;&lt;/font&gt;&lt;font color=&quot;#b266ff&quot;&gt;git&lt;/font&gt;&lt;font color=&quot;#665a0a&quot;&gt;:(&lt;/font&gt;&lt;font color=&quot;#ff9387&quot;&gt;dev&lt;/font&gt;&lt;font color=&quot;#665a0a&quot;&gt;)&amp;nbsp;&lt;/font&gt;&lt;/span&gt;&lt;span style=&quot;background-color: initial; font-size: 30px;&quot;&gt;&lt;font color=&quot;#665a0a&quot;&gt;git commit -m &quot;Add [feature/fix] description&quot;&lt;/font&gt;&lt;/span&gt;&lt;/div&gt;&lt;/div&gt;&lt;div style=&quot;&quot;&gt;&lt;b style=&quot;&quot;&gt;&lt;div style=&quot;&quot;&gt;&lt;br&gt;&lt;/div&gt;&lt;/b&gt;&lt;/div&gt;&lt;/font&gt;" style="shape=process;whiteSpace=wrap;html=1;backgroundOutline=1;sketch=1;curveFitting=1;jiggle=2;" vertex="1" parent="1">
          <mxGeometry x="2428.97" y="1398" width="1104.67" height="385" as="geometry" />
        </mxCell>
        <mxCell id="OIM9myzrcSlwBP61n2ra-18" style="edgeStyle=orthogonalEdgeStyle;rounded=0;orthogonalLoop=1;jettySize=auto;html=1;exitX=0;exitY=0.5;exitDx=0;exitDy=0;entryX=1;entryY=0.5;entryDx=0;entryDy=0;strokeWidth=5;sketch=1;curveFitting=1;jiggle=2;" edge="1" parent="1" source="OIM9myzrcSlwBP61n2ra-19" target="OIM9myzrcSlwBP61n2ra-21">
          <mxGeometry relative="1" as="geometry" />
        </mxCell>
        <mxCell id="OIM9myzrcSlwBP61n2ra-19" value="&lt;font style=&quot;&quot;&gt;&lt;div style=&quot;&quot;&gt;&lt;span style=&quot;font-size: 45px;&quot;&gt;&lt;b&gt;4. Push your&amp;nbsp;&lt;/b&gt;&lt;/span&gt;&lt;/div&gt;&lt;div style=&quot;&quot;&gt;&lt;span style=&quot;font-size: 45px;&quot;&gt;&lt;b&gt;feature branch&lt;/b&gt;&lt;/span&gt;&lt;/div&gt;&lt;div style=&quot;&quot;&gt;&lt;span style=&quot;font-size: 45px;&quot;&gt;&lt;b&gt;&lt;br&gt;&lt;/b&gt;&lt;/span&gt;&lt;/div&gt;&lt;div style=&quot;&quot;&gt;&lt;br&gt;&lt;/div&gt;&lt;div style=&quot;&quot;&gt;&lt;div style=&quot;&quot;&gt;&lt;span style=&quot;font-weight: 400; background-color: initial; font-size: 30px;&quot;&gt;&lt;font color=&quot;#665a0a&quot;&gt;➜&amp;nbsp;&amp;nbsp;&lt;/font&gt;&lt;font color=&quot;#6600cc&quot;&gt;eDB&lt;/font&gt;&lt;font color=&quot;#665a0a&quot;&gt;&amp;nbsp;&lt;/font&gt;&lt;font color=&quot;#b266ff&quot;&gt;git&lt;/font&gt;&lt;font color=&quot;#665a0a&quot;&gt;:(&lt;/font&gt;&lt;font color=&quot;#ff9387&quot;&gt;dev&lt;/font&gt;&lt;font color=&quot;#665a0a&quot;&gt;)&amp;nbsp;&lt;/font&gt;&lt;/span&gt;&lt;span style=&quot;background-color: initial;&quot;&gt;&lt;font color=&quot;#665a0a&quot; style=&quot;font-size: 30px;&quot;&gt;git push origin feature/your-branch-name&lt;/font&gt;&lt;/span&gt;&lt;/div&gt;&lt;b style=&quot;&quot;&gt;&lt;div style=&quot;font-size: 45px;&quot;&gt;&lt;div style=&quot;font-size: 12px; font-weight: 400;&quot;&gt;&lt;/div&gt;&lt;/div&gt;&lt;/b&gt;&lt;/div&gt;&lt;/font&gt;" style="shape=process;whiteSpace=wrap;html=1;backgroundOutline=1;sketch=1;curveFitting=1;jiggle=2;" vertex="1" parent="1">
          <mxGeometry x="1256.28" y="1398" width="1056" height="385" as="geometry" />
        </mxCell>
        <mxCell id="OIM9myzrcSlwBP61n2ra-20" style="edgeStyle=orthogonalEdgeStyle;rounded=0;orthogonalLoop=1;jettySize=auto;html=1;exitX=0.5;exitY=1;exitDx=0;exitDy=0;strokeWidth=5;" edge="1" parent="1" source="OIM9myzrcSlwBP61n2ra-21" target="OIM9myzrcSlwBP61n2ra-22">
          <mxGeometry relative="1" as="geometry" />
        </mxCell>
        <mxCell id="OIM9myzrcSlwBP61n2ra-21" value="&lt;font style=&quot;&quot;&gt;&lt;div style=&quot;&quot;&gt;&lt;span style=&quot;font-size: 45px;&quot;&gt;&lt;b&gt;5. Open PR and&amp;nbsp;&lt;/b&gt;&lt;/span&gt;&lt;/div&gt;&lt;div style=&quot;&quot;&gt;&lt;span style=&quot;font-size: 45px;&quot;&gt;&lt;b&gt;select branches to compare&lt;/b&gt;&lt;/span&gt;&lt;/div&gt;&lt;/font&gt;" style="shape=process;whiteSpace=wrap;html=1;backgroundOutline=1;sketch=1;curveFitting=1;jiggle=2;" vertex="1" parent="1">
          <mxGeometry x="444" y="1400.75" width="704" height="379.5" as="geometry" />
        </mxCell>
        <mxCell id="OIM9myzrcSlwBP61n2ra-22" value="&lt;font style=&quot;&quot;&gt;&lt;div style=&quot;&quot;&gt;&lt;span style=&quot;font-size: 45px;&quot;&gt;&lt;b&gt;6. Wait for CI/CD Checks&amp;nbsp;&lt;/b&gt;&lt;/span&gt;&lt;/div&gt;&lt;div style=&quot;&quot;&gt;&lt;span style=&quot;font-size: 45px;&quot;&gt;&lt;b&gt;to Pass&lt;/b&gt;&lt;/span&gt;&lt;/div&gt;&lt;/font&gt;" style="shape=process;whiteSpace=wrap;html=1;backgroundOutline=1;sketch=1;curveFitting=1;jiggle=2;" vertex="1" parent="1">
          <mxGeometry x="444" y="1970" width="704" height="280.5" as="geometry" />
        </mxCell>
        <mxCell id="OIM9myzrcSlwBP61n2ra-23" value="&lt;font style=&quot;&quot;&gt;&lt;div style=&quot;&quot;&gt;&lt;span style=&quot;font-size: 45px;&quot;&gt;&lt;b&gt;8. Only if all checks pass, m&lt;/b&gt;&lt;/span&gt;&lt;b style=&quot;background-color: initial; font-size: 45px;&quot;&gt;erge the PR to dev branch&lt;/b&gt;&lt;/div&gt;&lt;/font&gt;" style="shape=process;whiteSpace=wrap;html=1;backgroundOutline=1;sketch=1;curveFitting=1;jiggle=2;fillColor=#ffe6cc;strokeColor=#d79b00;" vertex="1" parent="1">
          <mxGeometry x="1577" y="4258" width="1430" height="231" as="geometry" />
        </mxCell>
        <mxCell id="OIM9myzrcSlwBP61n2ra-24" style="edgeStyle=orthogonalEdgeStyle;rounded=0;orthogonalLoop=1;jettySize=auto;html=1;exitX=0.5;exitY=1;exitDx=0;exitDy=0;strokeWidth=5;" edge="1" parent="1" source="OIM9myzrcSlwBP61n2ra-25" target="OIM9myzrcSlwBP61n2ra-23">
          <mxGeometry relative="1" as="geometry" />
        </mxCell>
        <mxCell id="OIM9myzrcSlwBP61n2ra-25" value="&lt;font style=&quot;font-size: 35px;&quot;&gt;2.&amp;nbsp;Build Backend&amp;nbsp;&lt;/font&gt;&lt;span style=&quot;font-size: 35px;&quot;&gt;✅&lt;/span&gt;&lt;div&gt;&lt;span style=&quot;font-size: 25px;&quot;&gt;&lt;br&gt;&lt;/span&gt;&lt;/div&gt;&lt;div&gt;&lt;font style=&quot;font-size: 30px;&quot; color=&quot;#665a0a&quot;&gt;????&lt;/font&gt;&lt;/div&gt;" style="shape=process;whiteSpace=wrap;html=1;backgroundOutline=1;sketch=1;curveFitting=1;jiggle=2;" vertex="1" parent="1">
          <mxGeometry x="2538.97" y="3719" width="963.03" height="209" as="geometry" />
        </mxCell>
        <mxCell id="OIM9myzrcSlwBP61n2ra-26" value="&lt;span style=&quot;font-size: 35px;&quot;&gt;backend changed?&lt;/span&gt;" style="edgeLabel;html=1;align=center;verticalAlign=middle;resizable=0;points=[];" vertex="1" connectable="0" parent="1">
          <mxGeometry x="2659.4785898305117" y="2585.999999952198" as="geometry">
            <mxPoint x="-18" y="6" as="offset" />
          </mxGeometry>
        </mxCell>
        <mxCell id="OIM9myzrcSlwBP61n2ra-27" style="edgeStyle=orthogonalEdgeStyle;rounded=0;orthogonalLoop=1;jettySize=auto;html=1;exitX=1;exitY=0.5;exitDx=0;exitDy=0;entryX=0;entryY=0.5;entryDx=0;entryDy=0;strokeWidth=5;sketch=1;curveFitting=1;jiggle=2;" edge="1" parent="1" source="OIM9myzrcSlwBP61n2ra-28" target="OIM9myzrcSlwBP61n2ra-13">
          <mxGeometry relative="1" as="geometry" />
        </mxCell>
        <mxCell id="OIM9myzrcSlwBP61n2ra-28" value="&lt;font style=&quot;font-size: 45px;&quot;&gt;&lt;font style=&quot;&quot;&gt;&lt;b style=&quot;&quot;&gt;0. Ensure you have&lt;/b&gt;&lt;/font&gt;&lt;font style=&quot;background-color: initial;&quot;&gt;&lt;b&gt;&amp;nbsp;latest cod&lt;/b&gt;&lt;/font&gt;&lt;b style=&quot;background-color: initial;&quot;&gt;e&lt;/b&gt;&lt;/font&gt;&lt;div&gt;&lt;span style=&quot;font-size: 40px;&quot;&gt;&lt;b&gt;&lt;br&gt;&lt;/b&gt;&lt;/span&gt;&lt;div&gt;&lt;font&gt;&lt;div&gt;&lt;div&gt;&lt;span style=&quot;background-color: initial; font-size: 30px;&quot;&gt;&lt;font color=&quot;#665a0a&quot;&gt;➜&amp;nbsp; &lt;/font&gt;&lt;font color=&quot;#6600cc&quot;&gt;eDB&lt;/font&gt;&lt;font color=&quot;#665a0a&quot;&gt; &lt;/font&gt;&lt;font color=&quot;#b266ff&quot;&gt;git&lt;/font&gt;&lt;font color=&quot;#665a0a&quot;&gt;:(&lt;/font&gt;&lt;font color=&quot;#ff9387&quot;&gt;dev&lt;/font&gt;&lt;font color=&quot;#665a0a&quot;&gt;)&amp;nbsp;&lt;/font&gt;&lt;/span&gt;&lt;font color=&quot;#665a0a&quot; style=&quot;font-size: 30px;&quot;&gt;git checkout dev&lt;/font&gt;&lt;/div&gt;&lt;div&gt;&lt;font style=&quot;background-color: initial; font-size: 30px;&quot; color=&quot;#665a0a&quot;&gt;➜&amp;nbsp; &lt;/font&gt;&lt;font color=&quot;#6600cc&quot; style=&quot;background-color: initial; font-size: 30px;&quot;&gt;eDB&lt;/font&gt;&lt;font style=&quot;background-color: initial; font-size: 30px;&quot; color=&quot;#665a0a&quot;&gt;&amp;nbsp;&lt;/font&gt;&lt;font color=&quot;#b266ff&quot; style=&quot;background-color: initial; font-size: 30px;&quot;&gt;git&lt;/font&gt;&lt;font color=&quot;#665a0a&quot; style=&quot;background-color: initial; font-size: 30px;&quot;&gt;:(&lt;/font&gt;&lt;font color=&quot;#ff9387&quot; style=&quot;background-color: initial; font-size: 30px;&quot;&gt;dev&lt;/font&gt;&lt;font style=&quot;background-color: initial; font-size: 30px;&quot; color=&quot;#665a0a&quot;&gt;)&lt;/font&gt;&lt;font color=&quot;#665a0a&quot; style=&quot;font-size: 30px;&quot;&gt;&amp;nbsp;git pull origin dev&lt;/font&gt;&lt;/div&gt;&lt;div&gt;&lt;br&gt;&lt;/div&gt;&lt;/div&gt;&lt;/font&gt;&lt;/div&gt;&lt;/div&gt;" style="shape=process;whiteSpace=wrap;html=1;backgroundOutline=1;sketch=1;curveFitting=1;jiggle=2;" vertex="1" parent="1">
          <mxGeometry x="455" y="826" width="871.6" height="385" as="geometry" />
        </mxCell>
        <mxCell id="OIM9myzrcSlwBP61n2ra-29" style="edgeStyle=orthogonalEdgeStyle;rounded=0;orthogonalLoop=1;jettySize=auto;html=1;exitX=0.5;exitY=1;exitDx=0;exitDy=0;entryX=0.493;entryY=-0.003;entryDx=0;entryDy=0;entryPerimeter=0;strokeWidth=5;sketch=1;curveFitting=1;jiggle=2;" edge="1" parent="1" source="OIM9myzrcSlwBP61n2ra-30" target="OIM9myzrcSlwBP61n2ra-32">
          <mxGeometry relative="1" as="geometry">
            <mxPoint x="3013" y="3180" as="targetPoint" />
          </mxGeometry>
        </mxCell>
        <mxCell id="OIM9myzrcSlwBP61n2ra-30" value="&lt;font style=&quot;font-size: 35px;&quot;&gt;1.&amp;nbsp;Lint Code with ???&amp;nbsp;&lt;/font&gt;&lt;span style=&quot;font-size: 35px;&quot;&gt;✅&lt;/span&gt;&lt;div&gt;&lt;div&gt;&lt;font color=&quot;#665a0a&quot; style=&quot;font-size: 30px;&quot;&gt;????&lt;/font&gt;&lt;/div&gt;&lt;/div&gt;" style="shape=process;whiteSpace=wrap;html=1;backgroundOutline=1;sketch=1;curveFitting=1;jiggle=2;" vertex="1" parent="1">
          <mxGeometry x="2538.97" y="2784" width="950.01" height="242" as="geometry" />
        </mxCell>
        <mxCell id="OIM9myzrcSlwBP61n2ra-31" style="edgeStyle=orthogonalEdgeStyle;rounded=0;orthogonalLoop=1;jettySize=auto;html=1;exitX=0.5;exitY=1;exitDx=0;exitDy=0;entryX=0.5;entryY=0;entryDx=0;entryDy=0;strokeWidth=5;sketch=1;curveFitting=1;jiggle=2;" edge="1" parent="1" source="OIM9myzrcSlwBP61n2ra-32" target="OIM9myzrcSlwBP61n2ra-25">
          <mxGeometry relative="1" as="geometry">
            <mxPoint x="3019.666666666667" y="3686" as="targetPoint" />
          </mxGeometry>
        </mxCell>
        <mxCell id="OIM9myzrcSlwBP61n2ra-32" value="&lt;font style=&quot;font-size: 35px;&quot;&gt;2.&amp;nbsp;Run Backend Unit and Integration Tests&amp;nbsp;&lt;/font&gt;&lt;span style=&quot;font-size: 35px;&quot;&gt;✅&lt;/span&gt;&lt;div&gt;&lt;span style=&quot;font-size: 35px;&quot;&gt;&lt;br&gt;&lt;/span&gt;&lt;div&gt;&lt;font color=&quot;#665a0a&quot; style=&quot;font-size: 30px;&quot;&gt;????&lt;/font&gt;&lt;/div&gt;&lt;/div&gt;" style="shape=process;whiteSpace=wrap;html=1;backgroundOutline=1;sketch=1;curveFitting=1;jiggle=2;" vertex="1" parent="1">
          <mxGeometry x="2534.48" y="3202" width="972.01" height="319" as="geometry" />
        </mxCell>
        <mxCell id="OIM9myzrcSlwBP61n2ra-33" value="&lt;meta charset=&quot;utf-8&quot;&gt;&lt;b style=&quot;forced-color-adjust: none; color: rgb(0, 0, 0); font-family: Helvetica; font-size: 45px; font-style: normal; font-variant-ligatures: normal; font-variant-caps: normal; letter-spacing: normal; orphans: 2; text-align: center; text-indent: 0px; text-transform: none; widows: 2; word-spacing: 0px; -webkit-text-stroke-width: 0px; white-space: normal; background-color: rgb(251, 251, 251); text-decoration-thickness: initial; text-decoration-style: initial; text-decoration-color: initial;&quot;&gt;How to contribute code&lt;/b&gt;" style="rounded=1;whiteSpace=wrap;html=1;" vertex="1" parent="1">
          <mxGeometry x="455" y="584" width="583" height="96" as="geometry" />
        </mxCell>
        <mxCell id="OIM9myzrcSlwBP61n2ra-34" value="" style="shape=flexArrow;endArrow=classic;html=1;rounded=0;width=45;endSize=23.575;endWidth=90;" edge="1" parent="1">
          <mxGeometry width="50" height="50" relative="1" as="geometry">
            <mxPoint x="1236" y="2135" as="sourcePoint" />
            <mxPoint x="1456" y="2234" as="targetPoint" />
          </mxGeometry>
        </mxCell>
        <mxCell id="OIM9myzrcSlwBP61n2ra-35" value="&lt;span style=&quot;font-size: 35px;&quot;&gt;frontend changed?&lt;/span&gt;" style="edgeLabel;html=1;align=center;verticalAlign=middle;resizable=0;points=[];" vertex="1" connectable="0" parent="1">
          <mxGeometry x="1934.7185898305115" y="2585.999999952198" as="geometry">
            <mxPoint x="-18" y="6" as="offset" />
          </mxGeometry>
        </mxCell>
      </root>
    </mxGraphModel>
  </diagram>
</mxfile>
